<?xml version="1.0" encoding="UTF-8"?>
<svg id="Layer_1" data-name="Layer 1" xmlns="http://www.w3.org/2000/svg" viewBox="0 0 344 314.67">
  <defs>
    <style>
      .cls-1 {
        fill: #9fc13b;
      }
    </style>
  </defs>
  <path class="cls-1" d="m16.43,33.57c0-8.96,7.26-16.22,16.22-16.22h171.15c44.72,0,77.86,8.63,99.43,25.88,21.57,17.26,32.35,45.08,32.35,83.48,0,49.46-18.53,81.84-55.59,97.15l39.66,46.74c8.94,10.54,1.45,26.72-12.37,26.72h-66.79c-4.77,0-9.31-2.1-12.39-5.75l-46.9-55.49h-72.91v45.02c0,8.96-7.26,16.22-16.22,16.22h-59.42c-8.96,0-16.22-7.26-16.22-16.22V33.57Zm187.37,65.07h-95.51v56.14h95.51c26.73,0,40.1-9.36,40.1-28.07s-13.37-28.07-40.1-28.07Z"/>
</svg>